<svg xmlns="http://www.w3.org/2000/svg" version="1.1" viewBox="-5.0 -10.0 110.0 135.0">
 <g>
  <path d="m23.438 93.75h59.375c3.4453 0 6.25-2.8047 6.25-6.25v-75c0-3.4453-2.8047-6.25-6.25-6.25h-59.375c-3.4453 0-6.25 2.8047-6.25 6.25v4.6875c-8.2578 0.26953-8.2617 12.234 0 12.5v14.062c-8.25 0.25781-8.2656 12.238 0 12.5v14.062c-8.2461 0.25-8.2695 12.242 0 12.5v4.6875c0 3.4453 2.8047 6.25 6.25 6.25zm-9.375-70.312c0-1.7227 1.4023-3.125 3.125-3.125v6.25c-1.7227 0-3.125-1.4023-3.125-3.125zm0 26.562c0-1.7227 1.4023-3.125 3.125-3.125v6.25c-1.7227 0-3.125-1.4023-3.125-3.125zm0 26.562c0-1.7227 1.4023-3.125 3.125-3.125v6.25c-1.7227 0-3.125-1.4023-3.125-3.125zm10.938 3.125h-4.6875v-23.438h4.6875c0.86328 0 1.5625-0.69922 1.5625-1.5625s-0.69922-1.5625-1.5625-1.5625h-4.6875v-23.438h4.6875c0.86328 0 1.5625-0.69922 1.5625-1.5625s-0.69922-1.5625-1.5625-1.5625h-4.6875v-14.062c0-1.7227 1.4023-3.125 3.125-3.125h6.25v75c0.035156 2.0234 3.082 2.082 3.125 0v-75h28.125v12.496c-0.097656 2.707 3.4922 4.1797 5.3359 2.2109l2.4766-2.4766 2.4766 2.4766c1.8477 1.9844 5.4297 0.48438 5.3359-2.2109v-6.2461c0-0.86328-0.69922-1.5625-1.5625-1.5625s-1.5625 0.69922-1.5625 1.5625v6.2461l-3.582-3.582c-0.60938-0.60937-1.5977-0.60937-2.2109 0l-3.582 3.582v-12.496h18.75c1.7227 0 3.125 1.4023 3.125 3.125v75c0 1.7227-1.4023 3.125-3.125 3.125h-59.375c-1.7227 0-3.125-1.4023-3.125-3.125v-4.6875h4.6875c2.0586-0.027344 2.0352-3.1055 0-3.125z"/>
  <path d="m42.188 75h34.375c2.043-0.03125 2.0625-3.0898 0-3.125h-34.375c-2.043 0.03125-2.0625 3.0898 0 3.125z"/>
  <path d="m71.875 79.688h-25c-2.0469 0.03125-2.0586 3.0898 0 3.125h25c2.0469-0.03125 2.0586-3.0898 0-3.125z"/>
  <path d="m59.375 67.188c8.6172 0 15.625-7.0117 15.625-15.625 0-8.0898-6.1758-14.758-14.062-15.547v-3.2031h1.5625c0.86328 0 1.5625-0.69922 1.5625-1.5625s-0.69922-1.5625-1.5625-1.5625h-6.25c-0.86328 0-1.5625 0.69922-1.5625 1.5625s0.69922 1.5625 1.5625 1.5625h1.5625v3.2031c-7.8867 0.78516-14.062 7.457-14.062 15.547 0 8.6133 7.0078 15.625 15.625 15.625zm0-28.125c6.8906 0 12.5 5.6094 12.5 12.5-0.6875 16.582-24.316 16.578-25 0 0-6.8906 5.6094-12.5 12.5-12.5z"/>
  <path d="m53.41 56.82c0.74219-0.4375 0.99219-1.3945 0.55078-2.1406-0.54297-0.92188-0.82813-1.9961-0.82813-3.1133 0-2.9023 1.9961-5.3242 4.6797-6.0273v6.0195c0.039062 0.55078 0.32422 1.043 0.78125 1.3516l6.7539 3.8984c2.6484 1.2305 3.3555-3.4258 3.4102-5.2461-0.46875-12.418-18.281-12.414-18.75 0 0.050782 1.8242 0.75781 6.4531 3.4023 5.25zm12.223-5.25c0 0.57031-0.078124 1.1328-0.22656 1.6719l-4.4688-2.582v-5.1211c2.6914 0.69531 4.6953 3.125 4.6953 6.0312z"/>
 </g>
</svg>