<svg xmlns="http://www.w3.org/2000/svg" xmlns:xlink="http://www.w3.org/1999/xlink" version="1.1" x="0px" y="0px" viewBox="0 0 100 125" style="enable-background:new 0 0 100 100;" xml:space="preserve"><path d="M10.5864258,54.0449219c-0.5029297,0.2285156-0.7250977,0.8212891-0.4970703,1.3242188  c0.2290039,0.5019531,0.8237305,0.7246094,1.3242188,0.4960938l7.4208984-3.3721313V89c0,0.5527344,0.4477539,1,1,1h60.3310547  c0.5522461,0,1-0.4472656,1-1V52.493103l7.4208984,3.3721313c0.1342773,0.0615234,0.2744141,0.0898438,0.4130859,0.0898438  c0.3798828,0,0.7431641-0.2177734,0.9111328-0.5859375c0.2280273-0.5029297,0.0058594-1.0957031-0.4970703-1.3242188  l-21.0239258-9.553833V20.4555054l2.1762695,0.9888306c0.1342773,0.0615234,0.2744141,0.0898438,0.4130859,0.0898438  c0.3798828,0,0.7431641-0.2177734,0.9111328-0.5859375c0.2280273-0.5029297,0.0058594-1.0957031-0.4970703-1.3242188  l-20.9794922-9.5332031c-0.2626953-0.1191406-0.5644531-0.1191406-0.8271484,0l-20.9794922,9.5332031  c-0.5029297,0.2285156-0.7250977,0.8212891-0.4970703,1.3242188c0.2290039,0.5029297,0.8232422,0.7255859,1.3242188,0.4960938  l2.1762695-0.9888306v24.0355835L10.5864258,54.0449219z M61.0493164,88H50.8408203V59.7676392  c5.7128296,0.4807129,10.2084961,5.026123,10.2084961,10.5507202V88z M48.8408203,88H38.6328125V70.3183594  c0-5.5245972,4.4953003-10.0700073,10.2080078-10.5507202V88z M79.1655273,88H63.0493164V70.3183594  c0-6.9472656-5.925293-12.5986328-13.2084961-12.5986328c-7.2827148,0-13.2080078,5.6513672-13.2080078,12.5986328V88H20.8344727  V51.5842285L50,38.3310547l29.1655273,13.2531738V88z M33.6103516,19.5467529L50,12.0996094l16.3896484,7.4471436v24.0354614  l-15.9760742-7.2599487c-0.2626953-0.1191406-0.5644531-0.1191406-0.8271484,0l-15.9760742,7.2599487V19.5467529z"/><path d="M55.9555664,30.8203125v-7.0986328c0-3.2148438-2.6157227-5.8300781-5.8305664-5.8300781h-0.25  c-3.2148438,0-5.8305664,2.6152344-5.8305664,5.8300781v7.0986328c0,0.5527344,0.4477539,1,1,1h9.9111328  C55.5078125,31.8203125,55.9555664,31.3730469,55.9555664,30.8203125z M53.9555664,29.8203125h-7.9111328v-6.0986328  c0-2.1123047,1.7182617-3.8300781,3.8305664-3.8300781h0.25c2.1123047,0,3.8305664,1.7177734,3.8305664,3.8300781V29.8203125z"/><path d="M44.7050781,79.7226562c0.5522461,0,1-0.4472656,1-1v-2.7460938c0-0.5527344-0.4477539-1-1-1s-1,0.4472656-1,1v2.7460938  C43.7050781,79.2753906,44.152832,79.7226562,44.7050781,79.7226562z"/><path d="M54.9770508,74.9765625c-0.5522461,0-1,0.4472656-1,1v2.7460938c0,0.5527344,0.4477539,1,1,1s1-0.4472656,1-1v-2.7460938  C55.9770508,75.4238281,55.5292969,74.9765625,54.9770508,74.9765625z"/></svg>