<svg xmlns="http://www.w3.org/2000/svg" version="1.1" viewBox="-5.0 -10.0 110.0 135.0">
 <g fill-rule="evenodd">
  <path d="m28.426 72.988c-2.1836 0-4.1211-0.078125-5.7734-0.19141-3.3711-0.22656-5.8594-0.60547-7.3594-0.88281-0.81641-0.15234-1.5469-0.3125-2.1133-0.46484-0.82422-0.22656-1.0312-0.35156-1.1562-0.45312-0.19531-0.16016-0.30859-0.39062-0.30859-0.63672v-34.277c0-0.42969 0.35156-0.78125 0.78125-0.78125 0.17969 0 0.34766 0.0625 0.47656 0.16797 0.64453 0.25391 4.2812 1.1289 10.18 1.5039 5.3242 0.33594 13.746 0.32422 23.656-1.6562 4.5703-0.92188 9.2383-1.5156 13.883-1.7617 3.7148-0.19922 7.418-0.17969 11.012 0.054687 6.1328 0.40234 9.7695 1.2891 9.9219 1.3281 0.34766 0.089844 0.59375 0.40234 0.59375 0.75781v34.324c0 0.23828-0.11328 0.46875-0.29688 0.61719-0.19141 0.14844-0.43359 0.19922-0.66797 0.14062-0.035156-0.007813-3.6875-0.89844-9.6914-1.293-5.543-0.36719-14.277-0.38281-24.438 1.6445-7.1992 1.4375-13.613 1.8594-18.703 1.8594zm-15.148-3.1289c1.1055 0.33203 4.5625 1.0781 9.9062 1.4102 5.3086 0.32812 13.715 0.30859 23.633-1.6758 4.5703-0.91016 9.2383-1.4961 13.883-1.7383 3.7148-0.19531 7.418-0.17188 11.012 0.066406 4.3711 0.29297 7.4766 0.82422 8.9492 1.1211v-32.73c-1.2656-0.26562-4.4883-0.85547-9.1016-1.1562-5.543-0.35938-14.277-0.35938-24.438 1.6836-10.289 2.0508-19.008 2.0312-24.516 1.6484-3.3555-0.23047-5.8516-0.60938-7.3477-0.88672-0.75391-0.14062-1.4297-0.28906-1.9766-0.42578v32.676zm0-33.773zm0-0.003907z"/>
  <path d="m28.43 70.09c-1.5547 0-3.1016-0.039063-4.6445-0.12109h-0.007812c-2.543-0.16016-4.8672-0.41406-7.0938-0.78516-0.41406-0.054688-0.91797-0.15234-1.4062-0.25-0.36719-0.074219-0.62891-0.39453-0.62891-0.76562v-28.367c0-0.23047 0.10156-0.44922 0.27734-0.60156 0.17578-0.14844 0.41016-0.21094 0.64062-0.17188 1.9922 0.35547 4.1992 0.61719 6.5586 0.76953h0.003906c8.1055 0.60938 16.848 0.039063 25.277-1.6445 8.0078-1.6133 16.078-2.1602 23.984-1.625 2.25 0.14844 4.8594 0.34375 7.3164 0.79297 0.37109 0.066407 0.64062 0.39063 0.64062 0.76563v28.367c0 0.23047-0.097656 0.44531-0.27344 0.58984-0.17188 0.14844-0.40234 0.21484-0.625 0.17969-2.3047-0.35156-4.75-0.54688-6.625-0.67969-8.5117-0.53516-16.996 0.050781-25.23 1.7422h-0.003906c-6.043 1.1992-12.133 1.8008-18.152 1.8008zm-4.5625-1.6797c7.3906 0.38672 14.926-0.17188 22.406-1.6445 8.3672-1.7227 16.996-2.3203 25.645-1.7734h0.003906c1.6641 0.11719 3.7734 0.28516 5.8555 0.5625v-26.809c-2.1875-0.35547-4.4883-0.52734-6.4961-0.66016-7.7695-0.52344-15.703 0.015624-23.574 1.5977-8.5703 1.7148-17.457 2.293-25.699 1.6758-2.0547-0.13672-4.0039-0.35156-5.8047-0.63672v26.801c0.25 0.050781 0.48438 0.089843 0.68359 0.11328 0.007812 0 0.019531 0.003906 0.03125 0.003906 2.1836 0.36328 4.4531 0.60938 6.9492 0.76562z"/>
  <path d="m87.496 64.355c-0.0625 0-0.12109-0.007813-0.18359-0.023438-0.019531-0.003906-2.2031-0.53125-5.957-0.95703-0.42969-0.050781-0.73828-0.43359-0.6875-0.86328 0.050781-0.42969 0.43359-0.73828 0.86328-0.6875 2.418 0.27344 4.1797 0.58594 5.1875 0.78516v-32.68c-1.2656-0.26563-4.4961-0.85938-9.1172-1.1641-5.5469-0.36719-14.281-0.38281-24.418 1.6445-10.301 2.0742-19 2.0664-24.48 1.6914-3.3633-0.23047-5.8555-0.61719-7.3477-0.89453-0.76562-0.14844-1.4609-0.29688-2.0117-0.44531v6.543c0 0.42969-0.35156 0.78125-0.78125 0.78125s-0.78125-0.35156-0.78125-0.78125v-7.668c0-0.42969 0.35156-0.78125 0.78125-0.78125 0.19141 0 0.36719 0.066406 0.50391 0.18359 0.64453 0.25781 4.2422 1.1523 10.168 1.5234 5.3047 0.33203 13.711 0.3125 23.648-1.6914 4.5625-0.91016 9.2227-1.4961 13.863-1.7383 3.7109-0.19531 7.418-0.17187 11.016 0.066407 6.1367 0.41016 9.7852 1.293 9.9375 1.332 0.34766 0.089844 0.59375 0.40234 0.59375 0.75781v34.277c0 0.23828-0.11328 0.46875-0.29688 0.61719-0.14844 0.10938-0.31641 0.16797-0.48828 0.16797zm-68.164-34.719zm0-0.003907z"/>
  <path d="m46.969 64.602c-3.043 0-5.8984-1.1797-8.0469-3.332-2.1484-2.1484-3.3281-5.0039-3.3281-8.0469 0-3.043 1.1797-5.8984 3.332-8.0469 2.1484-2.1484 5.0039-3.3281 8.0469-3.3281 3.043 0 5.8984 1.1797 8.0469 3.332 2.1484 2.1484 3.332 5.0039 3.332 8.0469 0 3.043-1.1797 5.8984-3.332 8.0469-2.1484 2.1484-5.0039 3.3281-8.0469 3.3281zm0-21.191c-5.4102 0-9.8164 4.4023-9.8164 9.8125s4.4023 9.8164 9.8164 9.8164c5.4102 0 9.8125-4.4023 9.8125-9.8164 0-5.4102-4.4062-9.8125-9.8125-9.8125z"/>
  <path d="m46.969 60.207c-1.0391 0-2.0117-0.40625-2.7344-1.1328-0.72266-0.73438-1.1211-1.7148-1.1211-2.7734 0-0.42969 0.35156-0.78125 0.78125-0.78125 0.42969 0 0.78125 0.35156 0.78125 0.78125 0 1.3125 1.0039 2.3438 2.293 2.3438 1.293 0 2.3438-1.0508 2.3438-2.3438 0-1.2656-1.0508-2.293-2.3438-2.293-2.1289 0-3.8594-1.7539-3.8594-3.9062 0-2.1523 1.7305-3.9062 3.8594-3.9062 1.0352 0 2.0117 0.41016 2.7539 1.1523 0.74219 0.74219 1.1523 1.7188 1.1523 2.7539 0 0.42969-0.35156 0.78125-0.78125 0.78125s-0.78125-0.35156-0.78125-0.78125c0-1.2695-1.0742-2.3438-2.3438-2.3438-1.2656 0-2.293 1.0508-2.293 2.3438 0 1.293 1.0312 2.3438 2.293 2.3438 2.1523 0 3.9062 1.7305 3.9062 3.8594 0 1.0547-0.41016 2.043-1.1523 2.7773-0.73828 0.72656-1.7148 1.1289-2.7539 1.1289z"/>
  <path d="m46.969 47.754c-0.42969 0-0.78125-0.35156-0.78125-0.78125v-0.97656c0-0.42969 0.35156-0.78125 0.78125-0.78125s0.78125 0.35156 0.78125 0.78125v0.97656c0 0.42969-0.35156 0.78125-0.78125 0.78125z"/>
  <path d="m46.969 61.184c-0.42969 0-0.78125-0.35156-0.78125-0.78125v-0.97656c0-0.42969 0.35156-0.78125 0.78125-0.78125s0.78125 0.35156 0.78125 0.78125v0.97656c0 0.42969-0.35156 0.78125-0.78125 0.78125z"/>
  <path d="m73.484 43.652h-5.1289c-0.42969 0-0.78125-0.35156-0.78125-0.78125 0-0.42969 0.35156-0.78125 0.78125-0.78125h5.1289c0.42969 0 0.78125 0.35156 0.78125 0.78125 0 0.42969-0.35156 0.78125-0.78125 0.78125z"/>
  <path d="m73.484 62.211h-5.1289c-0.42969 0-0.78125-0.35156-0.78125-0.78125 0-0.42969 0.35156-0.78125 0.78125-0.78125h5.1289c0.42969 0 0.78125 0.35156 0.78125 0.78125 0 0.42969-0.35156 0.78125-0.78125 0.78125z"/>
  <path d="m26.949 46.777h-5.1289c-0.42969 0-0.78125-0.35156-0.78125-0.78125 0-0.42969 0.35156-0.78125 0.78125-0.78125h5.1289c0.42969 0 0.78125 0.35156 0.78125 0.78125 0 0.42969-0.35156 0.78125-0.78125 0.78125z"/>
  <path d="m26.949 64.844h-5.1289c-0.42969 0-0.78125-0.35156-0.78125-0.78125s0.35156-0.78125 0.78125-0.78125h5.1289c0.42969 0 0.78125 0.35156 0.78125 0.78125s-0.35156 0.78125-0.78125 0.78125z"/>
 </g>
</svg>