<svg xmlns="http://www.w3.org/2000/svg" version="1.1" viewBox="-5.0 -10.0 110.0 135.0">
 <g fill-rule="evenodd">
  <path d="m64.797 77.637h-29.59c-0.42969 0-0.78125-0.35156-0.78125-0.78125v-17.039c0-3.207 1.2617-6.2305 3.5469-8.5156 2.1016-2.0977 4.8203-3.3281 7.7344-3.5156v-1.9805c0-0.42969 0.35156-0.78125 0.78125-0.78125 0.42969 0 0.78125 0.35156 0.78125 0.78125v2.7344c0 0.42969-0.35156 0.78125-0.78125 0.78125-5.793 0-10.496 4.707-10.496 10.496v16.262h28.027v-16.262c0-5.793-4.707-10.496-10.496-10.496-0.42969 0-0.78125-0.35156-0.78125-0.78125v-2.7344c0-0.42969 0.35156-0.78125 0.78125-0.78125 0.42969 0 0.78125 0.35156 0.78125 0.78125v1.9766c2.9141 0.18359 5.6406 1.4219 7.7344 3.5156 2.2852 2.2852 3.5469 5.3086 3.5469 8.5156v17.039c0 0.43359-0.35156 0.78516-0.78125 0.78516z"/>
  <path d="m50 54.492c-0.25781 0-0.50391-0.125-0.64453-0.34375l-3.5156-5.1758c-0.24219-0.35547-0.15234-0.84375 0.20703-1.0859 0.35547-0.24219 0.84375-0.15234 1.0859 0.20703l2.8711 4.2227 2.8711-4.2227c0.24219-0.35547 0.72656-0.44922 1.0859-0.20703 0.35547 0.24219 0.44922 0.72656 0.20703 1.0859l-3.5156 5.1758c-0.14062 0.21484-0.38672 0.34375-0.64453 0.34375z"/>
  <path d="m50 47.508c-2.1445 0-4.1641-0.83594-5.6875-2.3594-1.5273-1.5195-2.3672-3.5234-2.3672-5.6484v-5.4219c0-4.4453 3.6133-8.0586 8.0547-8.0586 4.4453 0 8.0586 3.6133 8.0586 8.0586v5.4219c0 2.125-0.83984 4.1328-2.3672 5.6484-1.5234 1.5234-3.5469 2.3594-5.6875 2.3594zm0-19.922c-3.5781 0-6.4922 2.9141-6.4922 6.4961v5.4219c0 3.5547 2.9141 6.4453 6.4922 6.4453s6.4961-2.8906 6.4961-6.4453v-5.4219c0-3.5781-2.9141-6.4961-6.4961-6.4961z"/>
  <path d="m53.316 36.242c-1.4258 0-2.5-0.48438-3.2148-1.4492-0.76172-1.0469-2.1484-1.4883-4.1289-1.3281-1.5859 0.13281-2.9219 0.61719-2.9297 0.62109-0.40625 0.14844-0.85547-0.058594-1-0.46484-0.14844-0.40625 0.058593-0.85547 0.46484-1 0.25391-0.09375 6.293-2.2617 8.8555 1.25 0.44922 0.60547 1.1953 0.87109 2.2812 0.80469 0.91016-0.054687 2.0312-0.35156 3.3398-0.875 0.40234-0.16016 0.85547 0.035157 1.0156 0.43359 0.16016 0.40234-0.035156 0.85547-0.43359 1.0156-1.6484 0.66016-3.0703 0.99219-4.2461 0.99219z"/>
  <path d="m50 77.637c-0.42969 0-0.78125-0.35156-0.78125-0.78125v-18.797c0-0.42969 0.35156-0.78125 0.78125-0.78125s0.78125 0.35156 0.78125 0.78125v18.797c0 0.42969-0.35156 0.78125-0.78125 0.78125z"/>
  <path d="m41.113 77.637c-0.42969 0-0.78125-0.35156-0.78125-0.78125v-13.719c0-0.42969 0.35156-0.78125 0.78125-0.78125 0.42969 0 0.78125 0.35156 0.78125 0.78125v13.719c0 0.42969-0.35156 0.78125-0.78125 0.78125z"/>
  <path d="m58.887 77.637c-0.42969 0-0.78125-0.35156-0.78125-0.78125v-13.719c0-0.42969 0.35156-0.78125 0.78125-0.78125 0.42969 0 0.78125 0.35156 0.78125 0.78125v13.719c0 0.42969-0.35156 0.78125-0.78125 0.78125z"/>
  <path d="m35.203 73.977h-21.926c-0.42969 0-0.78125-0.35156-0.78125-0.78125v-17.039c0-3.2031 1.2539-6.2188 3.5391-8.4961 2.0898-2.082 4.7969-3.3047 7.6914-3.4922v-1.9766c0-0.42969 0.35156-0.78125 0.78125-0.78125 0.42969 0 0.78125 0.35156 0.78125 0.78125v2.7344c0 0.42969-0.35156 0.78125-0.78125 0.78125-5.7617 0-10.449 4.6875-10.449 10.449v16.262h21.141c0.42969 0 0.78125 0.35156 0.78125 0.78125 0 0.42969-0.35156 0.78125-0.78125 0.78125zm5.7617-23.191c-0.25391 0-0.50781-0.125-0.65234-0.35547-1.9258-2.9531-5.1875-4.7227-8.7227-4.7227-0.42969 0-0.78125-0.35156-0.78125-0.78125v-2.7344c0-0.42969 0.35156-0.78125 0.78125-0.78125 0.42969 0 0.78125 0.35156 0.78125 0.78125v1.9766c3.7578 0.24219 7.1797 2.2266 9.25 5.4102 0.23438 0.35938 0.13281 0.84375-0.23047 1.0781-0.13281 0.089844-0.27734 0.12891-0.42578 0.12891z"/>
  <path d="m28.078 50.832c-0.25391 0-0.49219-0.125-0.64062-0.33594l-3.5664-5.125c-0.24219-0.35547-0.16016-0.83984 0.19531-1.0898 0.35547-0.24219 0.83984-0.16016 1.0898 0.19531l2.9219 4.1992 2.875-4.1953c0.24219-0.35547 0.73438-0.44531 1.0859-0.19922 0.35547 0.24219 0.44531 0.73438 0.19922 1.0859l-3.5156 5.125c-0.14844 0.21484-0.38672 0.34375-0.64453 0.34375z"/>
  <path d="m28.078 43.898c-4.4453 0-8.0586-3.6133-8.0586-8.0586v-5.4219c0-4.4453 3.6133-8.0586 8.0586-8.0586s8.0586 3.6133 8.0586 8.0586v5.4219c0 4.4414-3.6133 8.0586-8.0586 8.0586zm0-19.969c-3.5781 0-6.4961 2.9141-6.4961 6.4961v5.4219c0 3.5781 2.9141 6.4961 6.4961 6.4961 3.5781 0 6.4961-2.9141 6.4961-6.4961v-5.4219c0-3.5781-2.9141-6.4961-6.4961-6.4961z"/>
  <path d="m31.41 32.594c-1.7148 0-2.6875-0.70312-3.2305-1.4688-1.918-2.5586-7.0078-0.72266-7.0625-0.70312-0.40625 0.15234-0.85547-0.058594-1-0.46484-0.15234-0.40625 0.058593-0.85547 0.46094-1 0.25391-0.09375 6.2422-2.2617 8.8555 1.2383 0.003906 0.003907 0.003906 0.007813 0.007812 0.015626 1.0703 1.5078 3.9766 0.60156 5.6055-0.074219 0.40234-0.16797 0.85547 0.023437 1.0195 0.42578 0.16797 0.40234-0.023437 0.85547-0.42578 1.0195-1.7617 0.72656-3.1484 1.0117-4.2344 1.0117z"/>
  <path d="m28.078 73.977c-0.42969 0-0.78125-0.35156-0.78125-0.78125v-18.797c0-0.42969 0.35156-0.78125 0.78125-0.78125s0.78125 0.35156 0.78125 0.78125v18.797c0 0.42969-0.35156 0.78125-0.78125 0.78125z"/>
  <path d="m19.191 73.977c-0.42969 0-0.78125-0.35156-0.78125-0.78125v-13.672c0-0.42969 0.35156-0.78125 0.78125-0.78125 0.42969 0 0.78125 0.35156 0.78125 0.78125v13.672c0 0.42969-0.35156 0.78125-0.78125 0.78125z"/>
  <path d="m86.719 73.977h-21.926c-0.42969 0-0.78125-0.35156-0.78125-0.78125 0-0.42969 0.35156-0.78125 0.78125-0.78125h21.141v-16.262c0-5.7617-4.6875-10.449-10.449-10.449-0.42969 0-0.78125-0.35156-0.78125-0.78125v-2.7344c0-0.42969 0.35156-0.78125 0.78125-0.78125s0.78125 0.35156 0.78125 0.78125v1.9766c2.8945 0.18359 5.6055 1.4102 7.6914 3.4922 2.2812 2.2734 3.5391 5.293 3.5391 8.4961v17.039c0 0.42969-0.35156 0.78125-0.78125 0.78125zm-27.688-23.191c-0.14844 0-0.29297-0.039062-0.42578-0.125-0.35938-0.23438-0.46484-0.71875-0.23047-1.0781 2.0703-3.1836 5.4883-5.168 9.2461-5.4102v-1.9766c0-0.42969 0.35156-0.78125 0.78125-0.78125 0.42969 0 0.78125 0.35156 0.78125 0.78125v2.7344c0 0.42969-0.35156 0.78125-0.78125 0.78125-3.5352 0-6.7969 1.7656-8.7227 4.7227-0.15234 0.23047-0.39844 0.35547-0.65234 0.35547z"/>
  <path d="m71.926 50.832c-0.25781 0-0.5-0.125-0.64453-0.34375l-3.5156-5.125c-0.24219-0.35547-0.15234-0.83984 0.19922-1.0859 0.35547-0.24219 0.83984-0.15234 1.0859 0.19922l2.875 4.1953 2.9219-4.1992c0.24219-0.35547 0.73438-0.44141 1.0898-0.19531 0.35547 0.24219 0.44141 0.73438 0.19531 1.0898l-3.5664 5.125c-0.14844 0.21094-0.38672 0.33594-0.64062 0.33594z"/>
  <path d="m71.926 43.898c-4.4453 0-8.0586-3.6133-8.0586-8.0586v-5.4219c0-4.4453 3.6133-8.0586 8.0586-8.0586 4.4453 0 8.0586 3.6133 8.0586 8.0586v5.4219c0 4.4414-3.6133 8.0586-8.0586 8.0586zm0-19.969c-3.5781 0-6.4961 2.9141-6.4961 6.4961v5.4219c0 3.5781 2.9141 6.4961 6.4961 6.4961 3.5781 0 6.4961-2.9141 6.4961-6.4961v-5.4219c0-3.5781-2.9141-6.4961-6.4961-6.4961z"/>
  <path d="m68.59 32.594c-1.0898 0-2.4688-0.28516-4.2422-1.0156-0.40234-0.16797-0.58984-0.62109-0.42578-1.0195 0.16797-0.39844 0.62109-0.58984 1.0195-0.42578 1.6367 0.67578 4.5352 1.582 5.6055 0.074219 0.003906-0.003906 0.003906-0.007812 0.007813-0.015625 2.6133-3.5078 8.6055-1.3398 8.8555-1.2383 0.40625 0.15234 0.60938 0.60156 0.46094 1.0039-0.15234 0.40625-0.60156 0.60938-1 0.46094-0.050782-0.019531-5.1367-1.8555-7.0547 0.70312-0.54297 0.76953-1.5078 1.4727-3.2266 1.4727z"/>
  <path d="m71.926 73.977c-0.42969 0-0.78125-0.35156-0.78125-0.78125v-18.797c0-0.42969 0.35156-0.78125 0.78125-0.78125 0.42969 0 0.78125 0.35156 0.78125 0.78125v18.797c0 0.42969-0.35156 0.78125-0.78125 0.78125z"/>
  <path d="m80.809 73.977c-0.42969 0-0.78125-0.35156-0.78125-0.78125v-13.672c0-0.42969 0.35156-0.78125 0.78125-0.78125 0.42969 0 0.78125 0.35156 0.78125 0.78125v13.672c0 0.42969-0.35156 0.78125-0.78125 0.78125z"/>
 </g>
</svg>